<?xml version="1.0" encoding="utf-8"?>
<!-- Generator: Adobe Illustrator 24.0.2, SVG Export Plug-In . SVG Version: 6.00 Build 0)  -->
<svg version="1.1" id="Layer_1" xmlns="http://www.w3.org/2000/svg" xmlns:xlink="http://www.w3.org/1999/xlink" x="0px" y="0px"
	 viewBox="0 0 600 450" style="enable-background:new 0 0 600 450;" xml:space="preserve">
<style type="text/css">
	.st0{fill-rule:evenodd;clip-rule:evenodd;fill:#0D71BA;}
	.st1{fill:#29AAE2;}
	.st2{fill:#0D71BA;}
	.st3{font-family:'ProximaNova-Regular';}
	.st4{font-size:44.0927px;}
	.st5{font-size:27.3946px;}
	.st6{letter-spacing:2.17;}
	.st7{letter-spacing:1.67;}
	.st8{letter-spacing:2;}
</style>
<g>
	<path class="st0" d="M115.18,312.25c-7.88,0-14.19-2.14-18.76-6.35c-7.8-7.2-9.61-19.4-5.37-36.26l0.06-0.25h6.3l-0.09,0.41
		c-3.88,16.81-2.03,27.92,5.67,33.96c3.22,2.53,7.43,3.81,12.51,3.81c8.92,0,18.87-3.91,25.65-7.19c4.1-1.98,8.65-4.44,13.52-7.3
		l0.08-0.05h9.22l-0.99,0.62c-17.81,11.19-33.75,17.77-44.88,18.51C117.13,312.21,116.14,312.25,115.18,312.25L115.18,312.25z
		 M219.85,257.1c-9.12,0-15.99-6.97-15.99-16.22c0-9.19,6.84-16.13,15.9-16.13c1.21,0,2.4,0.12,3.53,0.37l0.36,0.08l0.17-0.33
		c2.4-4.73,9.73-22.23,11.4-27.47c4.1-12.84,4.15-25.1,0.12-32.8c-2.28-4.37-5.82-7.32-10.51-8.76c-1.14-0.35-2.89-0.53-5.18-0.53
		c-4.73,0-11.27,0.8-14.9,1.82l-0.38,0.11l0.03,0.39c0.03,0.34,0.04,0.66,0.04,0.98c0,6.35-5.16,11.51-11.51,11.51
		c-3.17,0-6.12-1.26-8.31-3.55l-0.26-0.27l-0.32,0.18c-20.93,11.76-41.33,29.37-57.44,49.59l-0.1,0.13h-6.53l0.45-0.55
		c8.64-10.61,18.95-21.98,25.05-27.65c5.42-5.04,11.39-9.89,18.25-14.84l14.27-9.29l0.04-0.03c0.25-0.21,1.12-0.7,2.15-1.27
		l0.25-0.14c0.36-0.2,0.73-0.41,1.1-0.62l0.31-0.18l-0.08-0.35c-0.21-0.88-0.32-1.78-0.32-2.68c0-6.35,5.16-11.51,11.51-11.51
		c4.16,0,8,2.25,10.04,5.88l0.16,0.29l0.33-0.05c1.09-0.17,2.46-0.43,3.66-0.66l0.16-0.03c1.36-0.26,2.78-0.53,3.42-0.6
		c2.21-0.24,4.2-0.36,6.1-0.36c1.24,0,2.47,0.05,3.66,0.16c9.14,0.8,15.57,4.74,19.11,11.7c7.58,14.89,0.45,34.79-5.57,48.46
		c-0.22,0.51-0.53,1.26-0.89,2.13l-0.04,0.11c-1.41,3.48-3.78,9.29-5.76,11.8l-0.35,0.44l0.5,0.27c5.11,2.76,8.29,8.25,8.29,14.33
		C235.75,250.17,228.91,257.1,219.85,257.1z M219.85,228.31c-6.88,0-12.08,5.44-12.08,12.66c0,7.17,5.15,12.58,11.99,12.58
		c6.77,0,12.08-5.56,12.08-12.67C231.84,233.72,226.68,228.31,219.85,228.31z"/>
	<g>
		<text transform="matrix(0.92 0 0 1 52.7051 256.3438)" class="st1 st3 st4">PACHEK</text>
		<text transform="matrix(0.92 0 0 1 247.4424 256.3438)" class="st1 st3 st4">TECHNOLOGIES</text>
	</g>
	<text transform="matrix(0.92 0 0 1 119.2725 283.7178)" class="st2 st3 st5 st6">Your</text>
	<text transform="matrix(0.6 0 0 1 181.75 283.7178)" class="st2 st3 st5 st7"> </text>
	<text transform="matrix(0.92 0 0 1 187.6338 283.7178)" class="st2 st3 st5 st6">Ultimate</text>
	<text transform="matrix(0.6 0 0 1 299.4336 283.7178)" class="st2 st3 st5 st7"> </text>
	<text transform="matrix(0.92 0 0 1 305.3174 283.7178)" class="st2 st3 st5 st6">Tech</text>
	<text transform="matrix(0.5 0 0 1 370.3408 283.7178)" class="st2 st3 st5 st8"> </text>
	<text transform="matrix(0.92 0 0 1 375.2441 283.7178)" class="st2 st3 st5 st6">Solution</text>
</g>
</svg>
