<?xml version="1.0" encoding="utf-8"?>
<!-- Generator: Adobe Illustrator 24.0.2, SVG Export Plug-In . SVG Version: 6.00 Build 0)  -->
<svg version="1.1" id="Layer_1" xmlns="http://www.w3.org/2000/svg" xmlns:xlink="http://www.w3.org/1999/xlink" x="0px" y="0px"
	 viewBox="0 0 600 450" style="enable-background:new 0 0 600 450;" xml:space="preserve">
<style type="text/css">
	.st0{fill-rule:evenodd;clip-rule:evenodd;fill:#0D71BA;}
	.st1{fill:#29AAE2;}
	.st2{fill:#0D71BA;}
</style>
<g>
	<path class="st0" d="M114.18,312.25c-7.88,0-14.19-2.14-18.76-6.35c-7.8-7.2-9.61-19.4-5.37-36.26l0.06-0.25h6.3l-0.09,0.41
		c-3.88,16.81-2.03,27.92,5.67,33.96c3.22,2.53,7.43,3.81,12.51,3.81c8.92,0,18.87-3.91,25.65-7.19c4.1-1.98,8.65-4.44,13.52-7.3
		l0.08-0.05h9.22l-0.99,0.62c-17.81,11.19-33.75,17.77-44.88,18.51C116.13,312.21,115.14,312.25,114.18,312.25L114.18,312.25z
		 M218.85,257.1c-9.12,0-15.99-6.97-15.99-16.22c0-9.19,6.84-16.13,15.9-16.13c1.21,0,2.4,0.12,3.53,0.37l0.36,0.08l0.17-0.33
		c2.4-4.73,9.73-22.23,11.4-27.47c4.1-12.84,4.15-25.1,0.12-32.8c-2.28-4.37-5.82-7.32-10.51-8.76c-1.14-0.35-2.89-0.53-5.18-0.53
		c-4.73,0-11.27,0.8-14.9,1.82l-0.38,0.11l0.03,0.39c0.03,0.34,0.04,0.66,0.04,0.98c0,6.35-5.16,11.51-11.51,11.51
		c-3.17,0-6.12-1.26-8.31-3.55l-0.26-0.27l-0.32,0.18c-20.93,11.76-41.33,29.37-57.44,49.59l-0.1,0.13h-6.53l0.45-0.55
		c8.64-10.61,18.95-21.98,25.05-27.65c5.42-5.04,11.39-9.89,18.25-14.84l14.27-9.29l0.04-0.03c0.25-0.21,1.12-0.7,2.15-1.27
		l0.25-0.14c0.36-0.2,0.73-0.41,1.1-0.62l0.31-0.18l-0.08-0.35c-0.21-0.88-0.32-1.78-0.32-2.68c0-6.35,5.16-11.51,11.51-11.51
		c4.16,0,8,2.25,10.04,5.88l0.16,0.29l0.33-0.05c1.09-0.17,2.46-0.43,3.66-0.66l0.16-0.03c1.36-0.26,2.78-0.53,3.42-0.6
		c2.21-0.24,4.2-0.36,6.1-0.36c1.24,0,2.47,0.05,3.66,0.16c9.14,0.8,15.57,4.74,19.11,11.7c7.58,14.89,0.45,34.79-5.57,48.46
		c-0.22,0.51-0.53,1.26-0.89,2.13l-0.04,0.11c-1.41,3.48-3.78,9.29-5.76,11.8l-0.35,0.44l0.5,0.27c5.11,2.76,8.29,8.25,8.29,14.33
		C234.75,250.17,227.91,257.1,218.85,257.1z M218.85,228.31c-6.88,0-12.08,5.44-12.08,12.66c0,7.17,5.15,12.58,11.99,12.58
		c6.77,0,12.08-5.56,12.08-12.67C230.84,233.72,225.68,228.31,218.85,228.31z"/>
	<g>
		<g>
			<path class="st1" d="M54.87,256.34v-29.41h10.87c5.43,0,8.48,4.06,8.48,8.86s-3.12,8.86-8.48,8.86h-7.5v11.69H54.87z
				 M70.73,235.79c0-3.31-2.19-5.6-5.39-5.6h-7.1v11.2h7.1C68.54,241.39,70.73,239.1,70.73,235.79z"/>
			<path class="st1" d="M94.9,256.34l-2.39-6.53H79.04l-2.39,6.53H72.8l10.87-29.41h4.18l10.91,29.41H94.9z M85.78,230.72
				l-5.76,15.83H91.5L85.78,230.72z"/>
			<path class="st1" d="M99.73,241.66c0-9.04,6.12-15.21,13.91-15.21c4.79,0,8.11,2.51,10.26,5.82l-2.84,1.72
				c-1.54-2.47-4.34-4.28-7.42-4.28c-5.92,0-10.42,4.94-10.42,11.95c0,6.97,4.5,11.95,10.42,11.95c3.08,0,5.88-1.76,7.42-4.28
				l2.88,1.72c-2.27,3.35-5.52,5.82-10.3,5.82C105.86,256.87,99.73,250.7,99.73,241.66z"/>
			<path class="st1" d="M147.48,256.34v-13.49h-15.82v13.49h-3.37v-29.41h3.37v12.66h15.82v-12.66h3.37v29.41H147.48z"/>
			<path class="st1" d="M157.21,256.34v-29.41h17.72v3.26h-14.36v9.48h14.07v3.26h-14.07v10.14h14.36v3.26H157.21z"/>
			<path class="st1" d="M196.68,256.34l-10.26-13.23l-2.72,3.35v9.88h-3.37v-29.41h3.37v15.21l11.96-15.21h4.22l-11.28,13.98
				l12.25,15.43H196.68z"/>
		</g>
		<g>
			<path class="st1" d="M256.3,256.34v-26.15h-8.56v-3.26h20.52v3.26h-8.6v26.15H256.3z"/>
			<path class="st1" d="M272.77,256.34v-29.41h17.72v3.26h-14.36v9.48h14.07v3.26h-14.07v10.14h14.36v3.26H272.77z"/>
			<path class="st1" d="M294.79,241.66c0-9.04,6.12-15.21,13.91-15.21c4.79,0,8.11,2.51,10.26,5.82l-2.84,1.72
				c-1.54-2.47-4.34-4.28-7.42-4.28c-5.92,0-10.42,4.94-10.42,11.95c0,6.97,4.5,11.95,10.42,11.95c3.08,0,5.88-1.76,7.42-4.28
				l2.88,1.72c-2.27,3.35-5.52,5.82-10.3,5.82C300.92,256.87,294.79,250.7,294.79,241.66z"/>
			<path class="st1" d="M342.54,256.34v-13.49h-15.82v13.49h-3.37v-29.41h3.37v12.66h15.82v-12.66h3.37v29.41H342.54z"/>
			<path class="st1" d="M371.42,256.34l-15.78-23.46v23.46h-3.37v-29.41h3.45l15.57,22.97v-22.97h3.37v29.41H371.42z"/>
			<path class="st1" d="M379.94,241.66c0-8.69,5.39-15.21,13.42-15.21c7.99,0,13.42,6.53,13.42,15.21s-5.43,15.21-13.42,15.21
				C385.33,256.87,379.94,250.35,379.94,241.66z M403.3,241.66c0-6.88-3.89-11.95-9.94-11.95c-6.08,0-9.94,5.07-9.94,11.95
				c0,6.83,3.85,11.95,9.94,11.95C399.41,253.61,403.3,248.49,403.3,241.66z"/>
			<path class="st1" d="M412.11,256.34v-29.41h3.37v26.15h12.57v3.26H412.11z"/>
			<path class="st1" d="M430.36,241.66c0-8.69,5.39-15.21,13.42-15.21c7.99,0,13.42,6.53,13.42,15.21s-5.43,15.21-13.42,15.21
				C435.76,256.87,430.36,250.35,430.36,241.66z M453.72,241.66c0-6.88-3.89-11.95-9.94-11.95c-6.08,0-9.94,5.07-9.94,11.95
				c0,6.83,3.85,11.95,9.94,11.95C449.83,253.61,453.72,248.49,453.72,241.66z"/>
			<path class="st1" d="M461.44,241.66c0-9.13,6.21-15.21,13.91-15.21c4.79,0,8.11,2.29,10.5,5.51l-2.68,1.81
				c-1.7-2.38-4.58-4.06-7.83-4.06c-5.92,0-10.42,4.94-10.42,11.95c0,6.97,4.5,11.99,10.42,11.99c3.25,0,5.92-1.72,7.26-3.18v-6
				h-9.29v-3.26h12.65v10.63c-2.51,3.04-6.21,5.07-10.63,5.07C467.64,256.92,461.44,250.79,461.44,241.66z"/>
			<path class="st1" d="M491.49,256.34v-29.41h3.37v29.41H491.49z"/>
			<path class="st1" d="M501.23,256.34v-29.41h17.72v3.26H504.6v9.48h14.07v3.26H504.6v10.14h14.36v3.26H501.23z"/>
			<path class="st1" d="M522.73,252.2l1.99-2.78c1.79,2.16,4.71,4.19,8.52,4.19c4.83,0,6.37-2.82,6.37-5.07
				c0-7.58-16.02-3.4-16.02-13.89c0-4.85,3.97-8.16,9.29-8.16c4.14,0,7.34,1.5,9.61,4.1l-2.03,2.69c-2.03-2.43-4.87-3.53-7.83-3.53
				c-3.25,0-5.56,1.9-5.56,4.67c0,6.61,16.02,2.82,16.02,13.8c0,4.28-2.68,8.64-9.98,8.64C528.41,256.87,524.96,254.93,522.73,252.2
				z"/>
		</g>
	</g>
	<g>
		<path class="st2" d="M125.13,283.72v-7.72l-6.63-10.55h2.45l5.22,8.49l5.22-8.49h2.44l-6.6,10.55v7.72H125.13z"/>
		<path class="st2" d="M134.55,277.09c0-3.83,2.32-6.93,6.02-6.93c3.71,0,6.03,3.09,6.03,6.93s-2.32,6.96-6.03,6.96
			C136.87,284.05,134.55,280.92,134.55,277.09z M144.61,277.09c0-2.68-1.44-5.09-4.03-5.09c-2.6,0-4.06,2.41-4.06,5.09
			c0,2.71,1.46,5.12,4.06,5.12C143.17,282.21,144.61,279.8,144.61,277.09z"/>
		<path class="st2" d="M160.41,283.72v-1.86c-0.93,1.15-2.52,2.19-4.34,2.19c-2.55,0-3.88-1.34-3.88-4.22v-9.34h1.89v8.71
			c0,2.33,1.08,3.01,2.72,3.01c1.49,0,2.9-0.93,3.6-2v-9.72h1.89v13.23H160.41z"/>
		<path class="st2" d="M168.6,283.72v-13.23h1.89v2.14c0.98-1.4,2.39-2.41,4.06-2.41v2.11c-0.23-0.05-0.45-0.08-0.76-0.08
			c-1.16,0-2.75,1.04-3.3,2.11v9.37H168.6z"/>
		<path class="st2" d="M185.4,276.62v-11.18h2.09v11.12c0,3.34,1.66,5.45,4.76,5.45s4.76-2.11,4.76-5.45v-11.12h2.09v11.15
			c0,4.55-2.29,7.45-6.86,7.45S185.4,281.12,185.4,276.62z"/>
		<path class="st2" d="M205.49,283.72v-18.27h1.89v18.27H205.49z"/>
		<path class="st2" d="M214.06,280.95v-8.66h-2.02v-1.81h2.02v-3.62h1.89v3.62h2.47v1.81h-2.47v8.22c0,0.99,0.4,1.7,1.24,1.7
			c0.53,0,1.03-0.25,1.29-0.55l0.55,1.53c-0.48,0.49-1.16,0.85-2.27,0.85C214.96,284.05,214.06,282.92,214.06,280.95z"/>
		<path class="st2" d="M223.28,267.23c0-0.77,0.58-1.4,1.26-1.4c0.71,0,1.29,0.63,1.29,1.4c0,0.77-0.58,1.37-1.29,1.37
			C223.86,268.6,223.28,268,223.28,267.23z M223.61,283.72v-13.23h1.89v13.23H223.61z"/>
		<path class="st2" d="M246.49,283.72v-8.98c0-1.67-0.68-2.74-2.24-2.74c-1.26,0-2.6,0.99-3.23,2.03v9.7h-1.89v-8.98
			c0-1.67-0.66-2.74-2.24-2.74c-1.24,0-2.55,0.99-3.2,2.05v9.67h-1.89v-13.23h1.89v1.92c0.5-0.85,2.14-2.25,3.93-2.25
			c1.87,0,2.92,1.1,3.28,2.46c0.68-1.21,2.32-2.46,4.08-2.46c2.22,0,3.4,1.34,3.4,4v9.56H246.49z"/>
		<path class="st2" d="M262.29,283.72v-1.51c-1.01,1.21-2.39,1.83-4.03,1.83c-2.07,0-4.26-1.51-4.26-4.38
			c0-2.96,2.19-4.35,4.26-4.35c1.66,0,3.05,0.58,4.03,1.81v-2.38c0-1.78-1.31-2.79-3.08-2.79c-1.46,0-2.65,0.58-3.73,1.83
			l-0.88-1.42c1.31-1.48,2.87-2.19,4.86-2.19c2.57,0,4.71,1.26,4.71,4.46v9.09H262.29z M262.29,280.92v-2.49
			c-0.73-1.1-2.02-1.64-3.35-1.64c-1.76,0-3,1.21-3,2.9c0,1.67,1.23,2.88,3,2.88C260.28,282.57,261.56,282.02,262.29,280.92z"/>
		<path class="st2" d="M270.86,280.95v-8.66h-2.02v-1.81h2.02v-3.62h1.89v3.62h2.47v1.81h-2.47v8.22c0,0.99,0.4,1.7,1.24,1.7
			c0.53,0,1.03-0.25,1.29-0.55l0.55,1.53c-0.48,0.49-1.16,0.85-2.27,0.85C271.77,284.05,270.86,282.92,270.86,280.95z"/>
		<path class="st2" d="M279.71,277.09c0-3.83,2.52-6.93,6-6.93c3.68,0,5.85,3.12,5.85,7.09v0.52h-9.86
			c0.15,2.49,1.76,4.57,4.39,4.57c1.39,0,2.8-0.6,3.76-1.67l0.91,1.34c-1.21,1.31-2.85,2.03-4.84,2.03
			C282.3,284.05,279.71,281.23,279.71,277.09z M285.68,271.86c-2.6,0-3.88,2.38-3.98,4.41h7.99
			C289.67,274.3,288.46,271.86,285.68,271.86z"/>
		<path class="st2" d="M307.24,283.72v-16.24h-5.32v-2.03h12.75v2.03h-5.34v16.24H307.24z"/>
		<path class="st2" d="M316.29,277.09c0-3.83,2.52-6.93,6-6.93c3.68,0,5.85,3.12,5.85,7.09v0.52h-9.86
			c0.15,2.49,1.76,4.57,4.39,4.57c1.39,0,2.8-0.6,3.76-1.67l0.91,1.34c-1.21,1.31-2.85,2.03-4.84,2.03
			C318.89,284.05,316.29,281.23,316.29,277.09z M322.26,271.86c-2.6,0-3.88,2.38-3.98,4.41h7.99
			C326.25,274.3,325.04,271.86,322.26,271.86z"/>
		<path class="st2" d="M333,277.09c0-3.92,2.45-6.93,6.08-6.93c2.22,0,3.53,0.99,4.46,2.3l-1.26,1.26c-0.81-1.21-1.84-1.73-3.1-1.73
			c-2.6,0-4.21,2.16-4.21,5.09s1.61,5.12,4.21,5.12c1.26,0,2.29-0.55,3.1-1.73l1.26,1.26c-0.93,1.31-2.24,2.3-4.46,2.3
			C335.44,284.05,333,281.03,333,277.09z"/>
		<path class="st2" d="M356.94,283.72v-8.71c0-2.33-1.11-3.01-2.75-3.01c-1.46,0-2.87,0.99-3.6,2.05v9.67h-1.89v-18.27h1.89v6.96
			c0.86-1.1,2.52-2.25,4.36-2.25c2.55,0,3.88,1.34,3.88,4.22v9.34H356.94z"/>
		<path class="st2" d="M369.1,281.14l1.24-1.73c1.11,1.34,2.92,2.6,5.29,2.6c3,0,3.96-1.75,3.96-3.15c0-4.71-9.96-2.11-9.96-8.63
			c0-3.01,2.47-5.07,5.77-5.07c2.57,0,4.56,0.93,5.97,2.55l-1.26,1.67c-1.26-1.51-3.03-2.19-4.87-2.19c-2.02,0-3.45,1.18-3.45,2.9
			c0,4.11,9.96,1.75,9.96,8.57c0,2.66-1.66,5.37-6.2,5.37C372.63,284.05,370.49,282.84,369.1,281.14z"/>
		<path class="st2" d="M386.62,277.09c0-3.83,2.32-6.93,6.02-6.93c3.71,0,6.03,3.09,6.03,6.93s-2.32,6.96-6.03,6.96
			C388.94,284.05,386.62,280.92,386.62,277.09z M396.68,277.09c0-2.68-1.44-5.09-4.03-5.09c-2.6,0-4.06,2.41-4.06,5.09
			c0,2.71,1.46,5.12,4.06,5.12C395.24,282.21,396.68,279.8,396.68,277.09z"/>
		<path class="st2" d="M404.26,283.72v-18.27h1.89v18.27H404.26z"/>
		<path class="st2" d="M420.67,283.72v-1.86c-0.93,1.15-2.52,2.19-4.34,2.19c-2.55,0-3.88-1.34-3.88-4.22v-9.34h1.89v8.71
			c0,2.33,1.08,3.01,2.72,3.01c1.49,0,2.9-0.93,3.6-2v-9.72h1.89v13.23H420.67z"/>
		<path class="st2" d="M429.24,280.95v-8.66h-2.02v-1.81h2.02v-3.62h1.89v3.62h2.47v1.81h-2.47v8.22c0,0.99,0.4,1.7,1.24,1.7
			c0.53,0,1.03-0.25,1.29-0.55l0.55,1.53c-0.48,0.49-1.16,0.85-2.27,0.85C430.14,284.05,429.24,282.92,429.24,280.95z"/>
		<path class="st2" d="M438.46,267.23c0-0.77,0.58-1.4,1.26-1.4c0.71,0,1.29,0.63,1.29,1.4c0,0.77-0.58,1.37-1.29,1.37
			C439.04,268.6,438.46,268,438.46,267.23z M438.79,283.72v-13.23h1.89v13.23H438.79z"/>
		<path class="st2" d="M446.27,277.09c0-3.83,2.32-6.93,6.02-6.93c3.71,0,6.03,3.09,6.03,6.93s-2.32,6.96-6.03,6.96
			C448.59,284.05,446.27,280.92,446.27,277.09z M456.33,277.09c0-2.68-1.44-5.09-4.03-5.09c-2.6,0-4.06,2.41-4.06,5.09
			c0,2.71,1.46,5.12,4.06,5.12C454.9,282.21,456.33,279.8,456.33,277.09z"/>
		<path class="st2" d="M472.13,283.72v-8.66c0-2.33-1.08-3.07-2.72-3.07c-1.49,0-2.9,0.99-3.6,2.05v9.67h-1.89v-13.23h1.89v1.92
			c0.86-1.1,2.52-2.25,4.34-2.25c2.55,0,3.88,1.4,3.88,4.27v9.29H472.13z"/>
	</g>
</g>
</svg>
